<svg xmlns="http://www.w3.org/2000/svg" viewBox="0 0 500.05 500.05"><defs><style>.cls-1{fill:#f5f5f5;}.cls-2{fill:#e0e0e0;}.cls-3{fill:#f0f0f0;}.cls-4{fill:none;}.cls-5{fill:#34bde8;}.cls-23,.cls-28,.cls-6{opacity:0.1;}.cls-10,.cls-12,.cls-13,.cls-21,.cls-25,.cls-28,.cls-6,.cls-7,.cls-8,.cls-9{isolation:isolate;}.cls-12,.cls-7{opacity:0.4;}.cls-8,.cls-9{opacity:0.3;}.cls-12,.cls-13,.cls-15,.cls-21,.cls-28,.cls-9{fill:#fff;}.cls-10,.cls-18,.cls-21{opacity:0.2;}.cls-11{fill:#455a64;}.cls-13,.cls-17{opacity:0.5;}.cls-14{opacity:0.8;}.cls-16,.cls-25{opacity:0.7;}.cls-19{fill:#ebebeb;}.cls-20{opacity:0.15;}.cls-22{fill:#ffa8a7;}.cls-24{fill:#37474f;}.cls-26{fill:#f28f8f;}.cls-27{fill:#263238;}.cls-29{fill:#ab6060;}.cls-30{fill:#873e3e;}</style></defs><title>illustration-intro_1</title><g id="Calque_2" data-name="Calque 2"><g id="Calque_1-2" data-name="Calque 1"><g id="freepik--Floor--inject-210"><path class="cls-1" d="M394.65,254.56c-80.13-46.22-209.58-46.22-289.17,0s-79.16,121.3,1,167.52,209.67,46.21,289.26,0S474.78,300.78,394.65,254.56Z"/></g><g id="freepik--Shadows--inject-210"><path class="cls-2" d="M133.1,407.64c-4.78-2.74-12.39-2.74-17.09,0s-4.69,7.18.09,9.92,12.4,2.75,17.18,0S137.79,410.39,133.1,407.64Z"/><path class="cls-2" d="M299.12,242.43l-12.05-6.91a11.93,11.93,0,0,0-12.13,0l-66.67,38.69-5.84-3.36-48.26,28.24,5.58,3.19-79,45.6a4.08,4.08,0,0,0-1.5,5.49,4,4,0,0,0,1.5,1.5l12.22,7a11.93,11.93,0,0,0,12.13,0L184,316.27l9.21,5.31a24.23,24.23,0,0,0,24.26,0l28.33-16.38a5.36,5.36,0,0,0,1.95-7.35,5.12,5.12,0,0,0-1.95-1.94l-13.28-7.62,11.16-6.46,3.89-2.22,51.54-29.92a4.08,4.08,0,0,0,1.5-5.49A3.32,3.32,0,0,0,299.12,242.43Z"/><path class="cls-2" d="M211.55,358.5c-13.81-8-36.21-8-50,0s-13.72,21,.18,29,36.21,8,50,0S225.45,366.47,211.55,358.5Z"/><path class="cls-2" d="M328.51,407.64c-12.57-7.26-32.85-7.26-45.33,0s-12.4,19,.17,26.21,32.85,7.26,45.34,0S341.08,414.9,328.51,407.64Z"/><path class="cls-2" d="M343.56,301.31c-12.92-7.44-33.82-7.44-46.75,0S284,320.87,297,328.4s33.82,7.44,46.75,0S356.49,308.74,343.56,301.31Z"/><path class="cls-2" d="M403.42,295.64c-5.05-2.92-13.28-2.92-18.33,0s-5,7.7.09,10.63,13.28,2.92,18.32,0S408.46,298.56,403.42,295.64Z"/></g><g id="freepik--Windows--inject-210"><polygon class="cls-1" points="132.84 121.22 130.27 119.71 102.29 135.74 102.29 138.84 132.84 121.22"/><polygon class="cls-2" points="132.84 121.22 132.84 121.22 132.84 121.22 102.29 138.84 102.29 142.29 132.84 124.76 132.84 121.22"/><polygon class="cls-2" points="102.29 138.84 132.84 121.22 132.84 121.22 102.29 138.84"/><polygon class="cls-1" points="99.37 140.43 96.71 138.92 68.73 155.04 68.73 158.05 99.37 140.43"/><polygon class="cls-2" points="99.37 140.43 99.37 140.43 99.37 140.43 68.73 158.05 68.73 161.5 99.37 143.97 99.37 140.43"/><polygon class="cls-2" points="68.82 158.05 99.37 140.43 99.37 140.43 68.82 158.05"/><polygon class="cls-1" points="214.56 74.2 211.9 72.61 183.92 88.72 183.92 91.73 214.56 74.2"/><polygon class="cls-2" points="214.56 74.2 214.56 74.2 214.56 74.2 183.92 91.73 183.92 95.27 214.56 77.65 214.56 74.2"/><polygon class="cls-2" points="183.92 91.73 214.56 74.11 214.56 74.11 183.92 91.73"/><polygon class="cls-1" points="181.09 93.41 178.43 91.91 150.46 107.93 150.46 111.03 181.09 93.41"/><polygon class="cls-2" points="181.09 93.41 181.09 93.41 181.09 93.41 150.46 111.03 150.46 114.49 181.09 96.95 181.09 93.41"/><polygon class="cls-2" points="150.46 111.03 181 93.41 181 93.41 150.46 111.03"/><polygon class="cls-3" points="132.75 91.82 130.09 90.31 130.27 184.61 132.84 186.12 132.75 91.82"/><polygon class="cls-1" points="132.84 186.12 130.27 184.61 99.81 202.05 102.47 203.65 132.84 186.12"/><path class="cls-2" d="M135.93,187.89l-36.56,21-.18-101.29,36.57-21Zm-33.46,15.76,30.45-17.45-.17-94.38-30.46,17.44.18,94.39"/><polygon class="cls-1" points="135.76 86.6 133.1 85 96.53 105.99 99.19 107.58 135.76 86.6"/><polygon class="cls-3" points="99.19 107.58 96.53 105.99 96.71 207.37 99.37 208.87 99.19 107.58"/><polygon class="cls-3" points="99.19 111.12 96.53 109.53 96.71 203.82 99.37 205.42 99.19 111.12"/><polygon class="cls-1" points="99.37 205.42 96.71 203.82 66.25 221.35 68.91 222.86 99.37 205.42"/><path class="cls-2" d="M102.47,207.1,66,228.08l-.18-101.29,36.57-21ZM68.91,222.86l30.46-17.44-.18-94.3L68.73,128.56l.18,94.3"/><polygon class="cls-1" points="102.29 105.81 99.63 104.3 63.07 125.29 65.72 126.79 102.29 105.81"/><polygon class="cls-3" points="65.72 126.79 63.07 125.29 63.24 226.58 65.9 228.17 65.72 126.79"/><polygon class="cls-3" points="214.38 44.8 211.73 43.21 211.9 137.59 214.56 139.1 214.38 44.8"/><polygon class="cls-1" points="214.56 139.1 211.9 137.59 181.44 155.04 184.1 156.63 214.56 139.1"/><path class="cls-2" d="M217.57,140.87l-36.57,21-.18-101.3,36.57-21ZM184.1,156.63l30.46-17.44-.18-94.3L183.92,62.25l.18,94.38"/><polygon class="cls-1" points="217.39 39.49 214.74 37.99 178.26 58.97 180.91 60.56 217.39 39.49"/><polygon class="cls-3" points="180.91 60.56 178.26 58.97 178.43 160.35 181.09 161.85 180.91 60.56"/><polygon class="cls-3" points="180.91 64.02 178.26 62.51 178.43 156.81 181.09 158.4 180.91 64.02"/><polygon class="cls-1" points="181.09 158.4 178.43 156.81 147.98 174.34 150.63 175.84 181.09 158.4"/><path class="cls-2" d="M184.1,160.08l-36.48,21-.18-101.29,36.57-21Zm-33.47,15.76,30.46-17.44L180.91,64,150.46,81.55l.17,94.29"/><polygon class="cls-1" points="183.92 58.79 181.27 57.29 144.79 78.27 147.44 79.78 183.92 58.79"/><polygon class="cls-3" points="147.44 79.78 144.79 78.27 144.97 179.56 147.62 181.07 147.44 79.78"/></g><g id="freepik--Pictures--inject-210"><polygon class="cls-4" points="377.21 145.47 406.16 162.21 406.07 184.34 377.12 167.61 377.21 145.47"/><polygon class="cls-3" points="377.21 145.47 377.12 167.61 374.46 169.2 374.55 143.97 377.21 145.47"/><polygon class="cls-1" points="406.07 184.34 406.07 187.44 374.46 169.2 377.12 167.61 406.07 184.34"/><path class="cls-2" d="M371.19,171l38.07,22,.09-32.67-38.07-22Zm3.27-1.78.09-25.23,2.66,1.51,29,16.73-.09,22.13v3.1Z"/><polygon class="cls-1" points="371.28 138.39 374.02 136.8 412.09 158.76 409.44 160.35 371.28 138.39"/><polygon class="cls-3" points="412.09 158.76 412 191.43 409.35 193.02 409.44 160.35 412.09 158.76"/><polygon class="cls-4" points="377.21 95.98 406.16 112.63 406.07 134.76 377.12 118.03 377.21 95.98"/><polygon class="cls-3" points="377.21 95.98 377.12 118.03 374.46 119.62 374.55 94.39 377.21 95.98"/><polygon class="cls-1" points="406.07 134.76 406.07 137.86 374.46 119.62 377.12 118.03 406.07 134.76"/><path class="cls-2" d="M371.19,121.48l38.07,22,.09-32.67-38.07-22Zm3.27-1.86.09-25.23,2.66,1.5,29,16.74-.09,22.13v3.1Z"/><polygon class="cls-1" points="371.28 88.81 374.02 87.3 412.09 109.26 409.44 110.86 371.28 88.81"/><polygon class="cls-3" points="412.09 109.26 412 141.93 409.35 143.44 409.44 110.86 412.09 109.26"/><polygon class="cls-2" points="386.42 153.89 378.54 160.09 378.45 166.19 404.74 181.33 404.74 175.22 399.79 165.31 395.27 168.85 396.86 173.72 394.56 169.38 386.42 153.89"/><path class="cls-2" d="M395,157c-1.23-.71-2.21-.18-2.21,1.24a5,5,0,0,0,2.21,3.89c1.24.71,2.22.18,2.22-1.24A5,5,0,0,0,395,157Z"/><polygon class="cls-2" points="386.42 104.39 378.54 110.59 378.45 116.61 404.74 131.75 404.74 125.73 399.79 115.81 395.27 119.27 396.86 124.23 394.56 119.8 386.42 104.39"/><path class="cls-2" d="M395,107.4c-1.23-.71-2.21-.17-2.21,1.24a5,5,0,0,0,2.21,3.9c1.24.71,2.22.18,2.22-1.24A5,5,0,0,0,395,107.4Z"/></g><g id="freepik--Device--inject-210"><path class="cls-5" d="M236,297.77,212.88,311A22,22,0,0,1,191,311L173.83,301a6.53,6.53,0,0,1-3.28-5.67V283.69l-3.54,2v10.1a7.75,7.75,0,0,0,3.81,6.64l20.36,11.77a21.69,21.69,0,0,0,21.52,0L236,301a8.71,8.71,0,0,0,4.25-9.21A8.64,8.64,0,0,1,236,297.77Z"/><path class="cls-6" d="M236,297.77,212.88,311A22,22,0,0,1,191,311L173.83,301a6.53,6.53,0,0,1-3.28-5.67V283.69l-3.54,2v10.1a7.75,7.75,0,0,0,3.81,6.64l20.36,11.77a21.69,21.69,0,0,0,21.52,0L236,301a8.71,8.71,0,0,0,4.25-9.21A8.64,8.64,0,0,1,236,297.77Z"/><path class="cls-5" d="M173.83,301,191,311a22,22,0,0,0,21.87,0L236,297.77a8.64,8.64,0,0,0,4.25-6,8.52,8.52,0,0,0-4.08-5.84l-18.94-11.42a7.72,7.72,0,0,1-3.72-6.55v-9l-42.86,24.79v11.68A6.27,6.27,0,0,0,173.83,301Z"/><path class="cls-7" d="M173.83,301a6.53,6.53,0,0,1-3.28-5.67V283.69l-3.54,2v10.19a7.75,7.75,0,0,0,3.81,6.64l7.26,4.16v-3.28Z"/><path class="cls-8" d="M173.83,301l4.16,2.39h0l44.8-25.59-5.66-3.36a7.72,7.72,0,0,1-3.72-6.55v-9l-42.86,24.79v11.68A6.53,6.53,0,0,0,173.83,301Z"/><path class="cls-5" d="M96,325.92l-.35-146.71a14.34,14.34,0,0,1,6.55-11.33L284.59,63c1.78-1.07,3.46-1.16,4.61-.45l-6.91-4h0c-1.24-.8-2.92-.71-4.78.35l-182.3,105a14.38,14.38,0,0,0-6.56,11.34L89,321.85a4.69,4.69,0,0,0,1.77,4.07h0a.66.66,0,0,0,.35.18l6.82,4C96.71,329.46,96,328,96,325.92Z"/><path class="cls-9" d="M282.29,58.44h0c-1.24-.8-2.92-.71-4.78.35L95.21,163.89a13.14,13.14,0,0,0-5,5.58l7,4.07a13.41,13.41,0,0,1,5.05-5.58L284.59,63c1.78-1.07,3.46-1.16,4.61-.45Z"/><path class="cls-10" d="M88.65,175.23,89,321.85a4.69,4.69,0,0,0,1.77,4.07h0a.66.66,0,0,0,.35.18l6.82,4c-1.15-.71-1.86-2.12-1.86-4.16l-.35-146.71a14.38,14.38,0,0,1,1.5-5.76l-7-4.07A13.7,13.7,0,0,0,88.65,175.23Z"/><path class="cls-5" d="M291.15,66.67c0-2-.71-3.45-1.86-4.16h0c-1.15-.71-2.84-.53-4.61.45L102.29,167.88a14.34,14.34,0,0,0-6.55,11.33l.35,146.71c0,2,.71,3.45,1.86,4.16l.09.09h.09c1.15.62,2.74.53,4.51-.53L285,224.72a14.37,14.37,0,0,0,6.55-11.33Zm-9.48,152.38L102.47,322.29l-.36-143a8,8,0,0,1,3.28-5.67L284.68,70.3l.36,143A8.12,8.12,0,0,1,281.67,219.05Z"/><path class="cls-5" d="M284.68,70.3,280.08,73l.35,138.12a8,8,0,0,1-3.27,5.67L102.47,317.33v5l179.2-103.15a7.88,7.88,0,0,0,3.28-5.67Z"/><path class="cls-8" d="M284.68,70.3,280.08,73l.35,138.12a8,8,0,0,1-3.27,5.67L102.47,317.33v5l179.2-103.15a7.88,7.88,0,0,0,3.28-5.67Z"/><path class="cls-11" d="M280.34,211.08,280,73,105.48,173.54a7.9,7.9,0,0,0-3.28,5.67l.27,138.12,174.6-100.49A8.33,8.33,0,0,0,280.34,211.08Z"/></g><g id="freepik--Window--inject-210"><path class="cls-5" d="M123.63,333.36l-.27-138.66a13.88,13.88,0,0,1,6.2-10.71l172.3-99.25c1.68-1,3.28-1.07,4.34-.45l-6.46-3.72h0c-1.16-.7-2.75-.7-4.52.36l-172.3,99.25a13.89,13.89,0,0,0-6.2,10.72L117,329.55a4.43,4.43,0,0,0,1.68,3.9h0l.35.17,6.38,3.72A4.52,4.52,0,0,1,123.63,333.36Z"/><path class="cls-12" d="M299.74,80.57h0c-1.16-.7-2.75-.7-4.52.36l-172.3,99.25a12.31,12.31,0,0,0-4.69,5.32l6.64,3.8a13,13,0,0,1,4.69-5.31l172.3-99.25c1.68-1,3.28-1.07,4.34-.45Z"/><path class="cls-9" d="M116.72,190.9,117,329.55a4.43,4.43,0,0,0,1.68,3.9h0l.35.17,6.38,3.72c-1.06-.62-1.77-2-1.77-4l-.27-138.66a12.24,12.24,0,0,1,1.42-5.4l-6.64-3.8A11.09,11.09,0,0,0,116.72,190.9Z"/><path class="cls-5" d="M123.36,202.76l.27,130.6a4.52,4.52,0,0,0,1.77,4l.09.09h0c1.15.62,2.65.44,4.34-.44l172.38-99.26a13.84,13.84,0,0,0,6.2-10.71l-.35-130.86Z"/><path class="cls-13" d="M123.36,202.76l.27,130.6a4.52,4.52,0,0,0,1.77,4l.09.09h0c1.15.62,2.65.44,4.34-.44l172.38-99.26a13.84,13.84,0,0,0,6.2-10.71l-.35-130.86Z"/><path class="cls-5" d="M301,104.84c1.6-.89,2.93-.18,2.93,1.68a6.06,6.06,0,0,1-2.93,5L153.2,196.83c-1.59.88-2.92.18-2.92-1.68a6,6,0,0,1,2.92-5Z"/><g class="cls-14"><path class="cls-15" d="M301,104.84c1.6-.89,2.93-.18,2.93,1.68a6.06,6.06,0,0,1-2.93,5L153.2,196.83c-1.59.88-2.92.18-2.92-1.68a6,6,0,0,1,2.92-5Z"/></g><path class="cls-5" d="M131.51,204.27h.17a.38.38,0,0,1,0,.44l-1,1.68,3.19-1.86c.18-.09.26,0,.26.18a.74.74,0,0,1-.26.53l-3.19,1.86,1,.62c.09.09.09.27,0,.53-.08.09-.08.18-.17.18s-.18.09-.18,0l-1.42-1a.08.08,0,0,1-.08-.08v-.18l.08-.18,1.42-2.57A.18.18,0,0,1,131.51,204.27Z"/><path class="cls-5" d="M139.48,199.66h.17l1.42,1,.09.08v.18l-.09.09-1.42,2.57c-.09.09-.09.18-.17.26h-.18a.38.38,0,0,1,0-.44l.88-1.68L137,203.56c-.18.09-.27,0-.27-.18a.76.76,0,0,1,.27-.53l3.18-1.86-1-.62a.39.39,0,0,1,0-.44Q139.35,199.66,139.48,199.66Z"/><path class="cls-5" d="M145.32,196.3a1.77,1.77,0,0,1,1-.27c0-.18.18-.35.27-.44h0c.18-.09.27,0,.27.18v.7a.78.78,0,0,1-.27.54l-.62.35h0c-.18.09-.27,0-.27-.18a.68.68,0,0,1,.18-.44,1.24,1.24,0,0,0-.53.18,2.8,2.8,0,0,0-1.24,2.12c0,.8.53,1.06,1.24.71a2.52,2.52,0,0,0,1.06-1.33,1.33,1.33,0,0,1,.27-.35h.18c.17,0,.17.18.08.35a3.77,3.77,0,0,1-1.59,2c-1,.53-1.77.09-1.77-1.06A4,4,0,0,1,145.32,196.3Z"/><g class="cls-16"><path class="cls-15" d="M131.51,204.27h.17a.38.38,0,0,1,0,.44l-1,1.68,3.19-1.86c.18-.09.26,0,.26.18a.74.74,0,0,1-.26.53l-3.19,1.86,1,.62c.09.09.09.27,0,.53-.08.09-.08.18-.17.18s-.18.09-.18,0l-1.42-1a.08.08,0,0,1-.08-.08v-.18l.08-.18,1.42-2.57A.18.18,0,0,1,131.51,204.27Z"/><path class="cls-15" d="M139.48,199.66h.17l1.42,1,.09.08v.18l-.09.09-1.42,2.57c-.09.09-.09.18-.17.26h-.18a.38.38,0,0,1,0-.44l.88-1.68L137,203.56c-.18.09-.27,0-.27-.18a.76.76,0,0,1,.27-.53l3.18-1.86-1-.62a.39.39,0,0,1,0-.44Q139.35,199.66,139.48,199.66Z"/><path class="cls-15" d="M145.32,196.3a1.77,1.77,0,0,1,1-.27c0-.18.18-.35.27-.44h0c.18-.09.27,0,.27.18v.7a.78.78,0,0,1-.27.54l-.62.35h0c-.18.09-.27,0-.27-.18a.68.68,0,0,1,.18-.44,1.24,1.24,0,0,0-.53.18,2.8,2.8,0,0,0-1.24,2.12c0,.8.53,1.06,1.24.71a2.52,2.52,0,0,0,1.06-1.33,1.33,1.33,0,0,1,.27-.35h.18c.17,0,.17.18.08.35a3.77,3.77,0,0,1-1.59,2c-1,.53-1.77.09-1.77-1.06A4,4,0,0,1,145.32,196.3Z"/></g><g class="cls-17"><path class="cls-15" d="M134.16,282.54a2.54,2.54,0,0,1-1.41-.36,3.76,3.76,0,0,1-1.6-3.36L131,225a10.6,10.6,0,0,1,4.78-8.32l64.63-37.27a3.15,3.15,0,0,1,4.52.44,3.08,3.08,0,0,1,.71,2.57l.17,53.83a10.6,10.6,0,0,1-4.78,8.32l-64.63,37.28A4.14,4.14,0,0,1,134.16,282.54Zm68.53-103a3.7,3.7,0,0,0-1.85.53L136.2,217.37a9.58,9.58,0,0,0-4.34,7.53l.18,53.83a2.94,2.94,0,0,0,1.15,2.57,2.75,2.75,0,0,0,2.83-.36l64.64-37.27a9.59,9.59,0,0,0,4.34-7.53l-.18-53.92a2.94,2.94,0,0,0-1.15-2.57C203.4,179.65,203.05,179.56,202.69,179.56Z"/></g><path class="cls-15" d="M258.92,245.79a1.62,1.62,0,0,1-.62-.18,1.3,1.3,0,0,1-.62-1.32l-.27-91.91a3.88,3.88,0,0,1,1.68-2.92l36.31-21a1.33,1.33,0,0,1,2.12,1.24l.27,91.9a3.86,3.86,0,0,1-1.69,2.92l-36.3,21A1.75,1.75,0,0,1,258.92,245.79Zm36.65-117,.18.35-36.3,21a2.69,2.69,0,0,0-1.24,2.12l.27,91.91a.93.93,0,0,0,.17.53.77.77,0,0,0,.62-.09l36.3-21a3.14,3.14,0,0,0,1.24-2.13l-.26-91.9a1,1,0,0,0-.18-.62.77.77,0,0,0-.62.09Z"/><path class="cls-5" d="M167.81,268.64c1.33-.8,2.48-.18,2.48,1.41l.09,28.69A5.57,5.57,0,0,1,168,303l-34.45,19.83c-1.32.8-2.48.18-2.48-1.41L131,292.72a5.51,5.51,0,0,1,2.39-4.25Z"/><g class="cls-18"><path class="cls-15" d="M167.81,268.64c1.33-.8,2.48-.18,2.48,1.41l.09,28.69A5.57,5.57,0,0,1,168,303l-34.45,19.83c-1.32.8-2.48.18-2.48-1.41L131,292.72a5.51,5.51,0,0,1,2.39-4.25Z"/></g><path class="cls-15" d="M168.07,270.49c.09-.08.18-.08.18,0s.09.27-.09.45L151,295.46l17.26,4.7c.09,0,.09.17,0,.35s-.09.18-.18.27h-.17l-17.36-4.7-17.26,24.79c0,.09-.09.09-.18.18h-.18c-.08-.18-.08-.35.09-.44l17.18-24.53-17.27-4.69c-.08,0-.17-.18-.08-.35a.45.45,0,0,1,.17-.27h.18l17.35,4.69,17.27-24.7C168,270.67,168,270.58,168.07,270.49Z"/><path class="cls-5" d="M210,244.82c1.33-.8,2.48-.18,2.48,1.41l.09,28.69a5.54,5.54,0,0,1-2.39,4.25L175.78,299c-1.33.8-2.48.18-2.48-1.41l-.09-28.69a5.41,5.41,0,0,1,2.48-4.25Z"/><g class="cls-18"><path class="cls-15" d="M210,244.82c1.33-.8,2.48-.18,2.48,1.41l.09,28.69a5.54,5.54,0,0,1-2.39,4.25L175.78,299c-1.33.8-2.48.18-2.48-1.41l-.09-28.69a5.41,5.41,0,0,1,2.48-4.25Z"/></g><path class="cls-15" d="M210.31,246.77c.09,0,.18-.09.18,0s.08.26-.09.44l-17.18,24.52,17.27,4.7c.08,0,.08.17.08.35a.45.45,0,0,1-.17.27h-.18l-17.35-4.7L175.6,297.06c0,.09-.09.09-.18.17h-.17c-.09-.08-.09-.26.09-.44l17.17-24.52-17.26-4.61c-.09,0-.09-.18-.09-.35s.09-.18.18-.27h.17l17.36,4.69L210.13,247C210.22,246.85,210.22,246.77,210.31,246.77Z"/><path class="cls-5" d="M251.75,220.82c1.32-.79,2.48-.17,2.48,1.42l.08,28.69a5.09,5.09,0,0,1-2.48,4.16l-34.44,19.83c-1.33.8-2.48.18-2.48-1.41l-.09-28.69a5.55,5.55,0,0,1,2.4-4.25Z"/><g class="cls-18"><path class="cls-15" d="M251.75,220.82c1.32-.79,2.48-.17,2.48,1.42l.08,28.69a5.09,5.09,0,0,1-2.48,4.16l-34.44,19.83c-1.33.8-2.48.18-2.48-1.41l-.09-28.69a5.55,5.55,0,0,1,2.4-4.25Z"/></g><path class="cls-15" d="M252,222.77c.09-.09.18-.09.18,0s.09.27-.09.44l-17.18,24.53,17.27,4.69c.09,0,.09.18.09.36a.18.18,0,0,1-.18.17h-.18l-17.44-4.69L217.3,273c0,.09-.08.09-.17.18s-.18.09-.18,0a.39.39,0,0,1,0-.44l17.18-24.53-17.27-4.69c-.09,0-.09-.18-.09-.35s.09-.18.18-.27h.18l17.35,4.69,17.27-24.7C251.92,222.86,251.92,222.77,252,222.77Z"/><path class="cls-5" d="M248.38,157c2.21-1.33,4.07-.27,4.07,2.3a8.91,8.91,0,0,1-4.07,7l-33.82,19.57c-2.21,1.33-4.07.27-4.07-2.3a8.93,8.93,0,0,1,4.07-7Z"/><g class="cls-18"><path class="cls-15" d="M248.38,157c2.21-1.33,4.07-.27,4.07,2.3a8.91,8.91,0,0,1-4.07,7l-33.82,19.57c-2.21,1.33-4.07.27-4.07-2.3a8.93,8.93,0,0,1,4.07-7Z"/></g><path class="cls-5" d="M248.38,170.09c2.21-1.33,4.07-.27,4.07,2.3a8.93,8.93,0,0,1-4.07,7L214.56,199c-2.21,1.33-4.07.27-4.07-2.3a8.91,8.91,0,0,1,4.07-7Z"/><g class="cls-18"><path class="cls-15" d="M248.38,170.09c2.21-1.33,4.07-.27,4.07,2.3a8.93,8.93,0,0,1-4.07,7L214.56,199c-2.21,1.33-4.07.27-4.07-2.3a8.91,8.91,0,0,1,4.07-7Z"/></g><path class="cls-5" d="M248.38,183.19c2.21-1.32,4.07-.26,4.07,2.31a8.91,8.91,0,0,1-4.07,7l-33.82,19.57c-2.21,1.33-4.07.26-4.07-2.3a8.93,8.93,0,0,1,4.07-7Z"/><g class="cls-18"><path class="cls-15" d="M248.38,183.19c2.21-1.32,4.07-.26,4.07,2.31a8.91,8.91,0,0,1-4.07,7l-33.82,19.57c-2.21,1.33-4.07.26-4.07-2.3a8.93,8.93,0,0,1,4.07-7Z"/></g><path class="cls-5" d="M308.06,88.28a4.54,4.54,0,0,0-1.77-4h0a4.37,4.37,0,0,0-4.34.45L129.56,183.9a13.89,13.89,0,0,0-6.2,10.72v8L308.06,96.16Z"/><path class="cls-8" d="M308.06,88.28a4.54,4.54,0,0,0-1.77-4h0a4.37,4.37,0,0,0-4.34.45L129.56,183.9a13.89,13.89,0,0,0-6.2,10.72v8L308.06,96.16Z"/><g class="cls-17"><path class="cls-15" d="M131.51,189.66c1-.53,1.68-.09,1.68,1a3.88,3.88,0,0,1-1.68,2.92c-1,.53-1.68.09-1.68-1A3.68,3.68,0,0,1,131.51,189.66Z"/><path class="cls-15" d="M136.11,186.91c1-.53,1.68-.09,1.68,1a3.82,3.82,0,0,1-1.68,2.92c-1,.53-1.68.09-1.68-1A4,4,0,0,1,136.11,186.91Z"/><path class="cls-15" d="M140.8,184.26c1-.54,1.69-.09,1.69,1a3.86,3.86,0,0,1-1.69,2.92c-1,.53-1.68.09-1.68-1A3.52,3.52,0,0,1,140.8,184.26Z"/></g><path class="cls-5" d="M131.51,189.66c1-.53,1.68-.09,1.68,1a3.88,3.88,0,0,1-1.68,2.92c-1,.53-1.68.09-1.68-1A3.68,3.68,0,0,1,131.51,189.66Z"/><path class="cls-5" d="M136.11,186.91c1-.53,1.68-.09,1.68,1a3.82,3.82,0,0,1-1.68,2.92c-1,.53-1.68.09-1.68-1A4,4,0,0,1,136.11,186.91Z"/><path class="cls-5" d="M140.8,184.26c1-.54,1.69-.09,1.69,1a3.86,3.86,0,0,1-1.69,2.92c-1,.53-1.68.09-1.68-1A3.52,3.52,0,0,1,140.8,184.26Z"/></g><g id="freepik--Plants--inject-210"><path class="cls-15" d="M136,391.88l-11.51.36L113,391.88c-.53,7.8,1.07,15.68,3.1,19.57h0a5.72,5.72,0,0,0,2.3,2.3,13.49,13.49,0,0,0,12.22,0,5.38,5.38,0,0,0,2.3-2.39C135.05,407.47,136.55,399.59,136,391.88Z"/><path class="cls-19" d="M132.66,387.19c4.51,2.57,4.51,6.82.09,9.39s-11.78,2.56-16.29,0-4.52-6.82,0-9.39A18,18,0,0,1,132.66,387.19Z"/><path class="cls-2" d="M130.89,388.25c3.54,2,3.54,5.32,0,7.35a13.86,13.86,0,0,1-12.66,0c-3.55-2-3.55-5.31,0-7.35A13.92,13.92,0,0,1,130.89,388.25Z"/><g class="cls-20"><path d="M130.89,388.25c3.54,2,3.54,5.32,0,7.35a13.86,13.86,0,0,1-12.66,0c-3.55-2-3.55-5.31,0-7.35A13.92,13.92,0,0,1,130.89,388.25Z"/></g><path class="cls-5" d="M118.67,368.42c-1.86-2.3-4.07-4.43-5.76-6.82-1.15-1.68-2.12-3.72-1.68-5.66a5.11,5.11,0,0,1,4.07-3.55,7.89,7.89,0,0,1,5.41,1.24,17.34,17.34,0,0,1,4.07,3.9,40.78,40.78,0,0,1,8.59,29,5.86,5.86,0,0,1-1.07,3.37,3.43,3.43,0,0,1-3.45,1.06c-3.1-.89-2.74-5.14-3.27-7.61A33.51,33.51,0,0,0,118.67,368.42Z"/><path class="cls-21" d="M118.67,368.42c-1.86-2.3-4.07-4.43-5.76-6.82-1.15-1.68-2.12-3.72-1.68-5.66a5.11,5.11,0,0,1,4.07-3.55,7.89,7.89,0,0,1,5.41,1.24,17.34,17.34,0,0,1,4.07,3.9,40.78,40.78,0,0,1,8.59,29,5.86,5.86,0,0,1-1.07,3.37,3.43,3.43,0,0,1-3.45,1.06c-3.1-.89-2.74-5.14-3.27-7.61A33.51,33.51,0,0,0,118.67,368.42Z"/><path class="cls-3" d="M129,387.63c-.09,0-.18-.08-.18-.26-.18-5.05-1.86-22.23-13.63-32-.09-.09-.18-.27-.09-.36s.26-.18.35-.09h0c12,9.92,13.64,27.27,13.9,32.32,0,.18-.17.27-.35.35Z"/><path class="cls-5" d="M130.71,388.17a8.37,8.37,0,0,1-3.81,5.31,10.92,10.92,0,0,1-5.84,1,27.67,27.67,0,0,1-5.93-1.41c-1-.36-2-.71-2.13-2a2.09,2.09,0,0,1,.71-1.68,4.29,4.29,0,0,1,.62-.54.57.57,0,0,0,.18-.79.49.49,0,0,0-.44-.27,10.65,10.65,0,0,1-1.69-.18,7.12,7.12,0,0,1-3.54-1.59,5.65,5.65,0,0,1-1.59-2.39,2.32,2.32,0,0,1,.26-2.39,2.23,2.23,0,0,1,1.33-.53c.44-.09.89-.18,1.24-.27a.51.51,0,0,0,.44-.62.59.59,0,0,0-.35-.44l-1.77-.71a2.74,2.74,0,0,1-1.33-.88,3,3,0,0,1-.35-2.48c.17-1.15.62-2.22.88-3.28a6.1,6.1,0,0,0,.09-3.36,27.24,27.24,0,0,1,10,.7,7.49,7.49,0,0,1,2.74,1.16,3.76,3.76,0,0,1,1.24,3.63.24.24,0,0,0,.27.26c.08,0,.17-.09.26-.18l1.15-2.12a1.31,1.31,0,0,1,1.77-.53,9.7,9.7,0,0,1,2.57,2,4.6,4.6,0,0,1,1.15,3.37,42.27,42.27,0,0,1-.8,4.87.4.4,0,0,0,.36.53c.18,0,.26,0,.35-.09h.09a1.58,1.58,0,0,1,1.06-.35c1,.09,1.24,1.15,1.33,2A21,21,0,0,1,130.71,388.17Z"/><path class="cls-10" d="M130.71,388.17a8.37,8.37,0,0,1-3.81,5.31,10.92,10.92,0,0,1-5.84,1,27.67,27.67,0,0,1-5.93-1.41c-1-.36-2-.71-2.13-2a2.09,2.09,0,0,1,.71-1.68,4.29,4.29,0,0,1,.62-.54.57.57,0,0,0,.18-.79.49.49,0,0,0-.44-.27,10.65,10.65,0,0,1-1.69-.18,7.12,7.12,0,0,1-3.54-1.59,5.65,5.65,0,0,1-1.59-2.39,2.32,2.32,0,0,1,.26-2.39,2.23,2.23,0,0,1,1.33-.53c.44-.09.89-.18,1.24-.27a.51.51,0,0,0,.44-.62.59.59,0,0,0-.35-.44l-1.77-.71a2.74,2.74,0,0,1-1.33-.88,3,3,0,0,1-.35-2.48c.17-1.15.62-2.22.88-3.28a6.1,6.1,0,0,0,.09-3.36,27.24,27.24,0,0,1,10,.7,7.49,7.49,0,0,1,2.74,1.16,3.76,3.76,0,0,1,1.24,3.63.24.24,0,0,0,.27.26c.08,0,.17-.09.26-.18l1.15-2.12a1.31,1.31,0,0,1,1.77-.53,9.7,9.7,0,0,1,2.57,2,4.6,4.6,0,0,1,1.15,3.37,42.27,42.27,0,0,1-.8,4.87.4.4,0,0,0,.36.53c.18,0,.26,0,.35-.09h.09a1.58,1.58,0,0,1,1.06-.35c1,.09,1.24,1.15,1.33,2A21,21,0,0,1,130.71,388.17Z"/><path class="cls-21" d="M130.71,388.17a8.37,8.37,0,0,1-3.81,5.31,10.92,10.92,0,0,1-5.84,1,27.67,27.67,0,0,1-5.93-1.41c-1-.36-2-.71-2.13-2a2.09,2.09,0,0,1,.71-1.68,4.29,4.29,0,0,1,.62-.54.57.57,0,0,0,.18-.79.49.49,0,0,0-.44-.27,10.65,10.65,0,0,1-1.69-.18,7.12,7.12,0,0,1-3.54-1.59,5.65,5.65,0,0,1-1.59-2.39,2.32,2.32,0,0,1,.26-2.39,2.23,2.23,0,0,1,1.33-.53c.44-.09.89-.18,1.24-.27a.51.51,0,0,0,.44-.62.59.59,0,0,0-.35-.44l-1.77-.71a2.74,2.74,0,0,1-1.33-.88,3,3,0,0,1-.35-2.48c.17-1.15.62-2.22.88-3.28a6.1,6.1,0,0,0,.09-3.36,27.24,27.24,0,0,1,10,.7,7.49,7.49,0,0,1,2.74,1.16,3.76,3.76,0,0,1,1.24,3.63.24.24,0,0,0,.27.26c.08,0,.17-.09.26-.18l1.15-2.12a1.31,1.31,0,0,1,1.77-.53,9.7,9.7,0,0,1,2.57,2,4.6,4.6,0,0,1,1.15,3.37,42.27,42.27,0,0,1-.8,4.87.4.4,0,0,0,.36.53c.18,0,.26,0,.35-.09h.09a1.58,1.58,0,0,1,1.06-.35c1,.09,1.24,1.15,1.33,2A21,21,0,0,1,130.71,388.17Z"/><path class="cls-3" d="M125.4,393.21a40.69,40.69,0,0,0-2.66-7.79c0-.09,0-.18-.09-.18l-.17-.44a26.72,26.72,0,0,1,2.65-8.94c.09-.18,0-.27-.09-.36s-.26,0-.35.09a27.07,27.07,0,0,0-2.66,8.33,36.24,36.24,0,0,0-11.51-13.82.21.21,0,0,0-.35.09.22.22,0,0,0,.09.36h0a35.73,35.73,0,0,1,11.6,14.25,17.72,17.72,0,0,0-9.57-1.33c-.17,0-.26.18-.17.36a.18.18,0,0,0,.17.17h.09a15.71,15.71,0,0,1,9.83,1.6,39.63,39.63,0,0,1,2.66,7.7.19.19,0,0,0,.17.18h.09c.18,0,.36-.09.27-.27Z"/><path class="cls-15" d="M406.52,278.82l-12.31.35-12.31-.35c-.53,8.32,1.06,16.73,3.37,20.89h0a5.54,5.54,0,0,0,2.47,2.48,14.25,14.25,0,0,0,13.11,0,4.81,4.81,0,0,0,2.39-2.57C405.45,295.46,407.13,287.05,406.52,278.82Z"/><path class="cls-19" d="M403,273.77c4.78,2.75,4.87,7.26.09,10.09s-12.57,2.75-17.35,0-4.87-7.26-.09-10.09S398.1,271,403,273.77Z"/><path class="cls-2" d="M401,274.83c3.71,2.22,3.8,5.67,0,7.88a14.62,14.62,0,0,1-13.55,0c-3.72-2.21-3.81-5.66,0-7.88A15.23,15.23,0,0,1,401,274.83Z"/><g class="cls-20"><path d="M401,274.83c3.71,2.22,3.8,5.67,0,7.88a14.62,14.62,0,0,1-13.55,0c-3.72-2.21-3.81-5.66,0-7.88A15.23,15.23,0,0,1,401,274.83Z"/></g><path class="cls-5" d="M414.48,226.31c-27.71,9-28,27.63-21.69,40.82,1.6,2.66,6.38,4.07,10.54-12.31l-7.26.89,8.5-4.34,2.21-6.55-7.08.53,8.94-3.81A122.66,122.66,0,0,1,414.48,226.31Z"/><path class="cls-10" d="M414.48,226.31c-27.71,9-28,27.63-21.69,40.82,1.6,2.66,6.38,4.07,10.54-12.31l-7.26.89,8.5-4.34,2.21-6.55-7.08.53,8.94-3.81A122.66,122.66,0,0,1,414.48,226.31Z"/><path class="cls-21" d="M414.48,226.31c-27.71,9-28,27.63-21.69,40.82,1.6,2.66,6.38,4.07,10.54-12.31l-7.26.89,8.5-4.34,2.21-6.55-7.08.53,8.94-3.81A122.66,122.66,0,0,1,414.48,226.31Z"/><path class="cls-15" d="M406.69,231c-14.61,11.06-15.94,23.81-11.77,37.09C393.41,256.33,391.82,244.55,406.69,231Z"/><path class="cls-5" d="M367.56,245.17c27.27,3.81,30.63,21.07,27,34.44-1,2.75-5.22,4.87-11.77-9.73l6.9-.36L381.1,267,378,261.2l6.64-.71-8.95-2A145,145,0,0,0,367.56,245.17Z"/><path class="cls-21" d="M367.56,245.17c27.27,3.81,30.63,21.07,27,34.44-1,2.75-5.22,4.87-11.77-9.73l6.9-.36L381.1,267,378,261.2l6.64-.71-8.95-2A145,145,0,0,0,367.56,245.17Z"/><path class="cls-6" d="M367.56,245.17c27.27,3.81,30.63,21.07,27,34.44-1,2.75-5.22,4.87-11.77-9.73l6.9-.36L381.1,267,378,261.2l6.64-.71-8.95-2A145,145,0,0,0,367.56,245.17Z"/><path class="cls-15" d="M375.61,248.18c15.5,7.88,18.78,19.48,17.18,32.59C392.17,269.61,391.73,258.36,375.61,248.18Z"/><path class="cls-5" d="M422.45,251.64c-25.05.44-29.92,15.58-28.15,28,.62,2.57,4.16,5,11.77-7.43l-6.2-1.07,8.06-1.41,3.45-4.87-5.93-1.33,8.33-.8A105.34,105.34,0,0,1,422.45,251.64Z"/><path class="cls-15" d="M414.84,253.41c-14.79,5.4-19.13,15.49-19.13,27.44C397.57,270.94,399.25,260.76,414.84,253.41Z"/><path class="cls-21" d="M422.45,251.64c-25.05.44-29.92,15.58-28.15,28,.62,2.57,4.16,5,11.77-7.43l-6.2-1.07,8.06-1.41,3.45-4.87-5.93-1.33,8.33-.8A105.34,105.34,0,0,1,422.45,251.64Z"/></g><g id="freepik--character-3--inject-210"><polygon class="cls-22" points="325.94 154.33 325.94 162.56 327.36 175.4 329.49 187.97 336.83 188.86 333.82 175.4 328.16 153.27 325.94 154.33"/><path class="cls-5" d="M328.86,186.47a9,9,0,0,1,8.42.8l.79,21.51-9-5.13Z"/><path class="cls-5" d="M328.86,186.47a9,9,0,0,1,8.42.8l.79,21.51-9-5.13Z"/><path class="cls-8" d="M328.86,186.47a9,9,0,0,1,8.42.8l.79,21.51-9-5.13Z"/><path class="cls-9" d="M328.86,186.47a9,9,0,0,1,8.42.8l.79,21.51-9-5.13Z"/><path class="cls-5" d="M324.35,124.67c.8-.53,1.5-.09,1.5.88l.27,94.12a3.27,3.27,0,0,1-1.51,2.57l-37.18,21.43c-.8.44-1.51.09-1.51-.89l-.26-94.12a3.33,3.33,0,0,1,1.5-2.65Z"/><g class="cls-18"><path d="M324.35,124.67c.8-.53,1.5-.09,1.5.88l.27,94.12a3.27,3.27,0,0,1-1.51,2.57l-37.18,21.43c-.8.44-1.51.09-1.51-.89l-.26-94.12a3.33,3.33,0,0,1,1.5-2.65Z"/></g><g class="cls-23"><path class="cls-15" d="M324.35,124.67c.8-.53,1.5-.09,1.5.88l.27,94.12a3.27,3.27,0,0,1-1.51,2.57l-37.18,21.43c-.8.44-1.51.09-1.51-.89l-.26-94.12a3.33,3.33,0,0,1,1.5-2.65Z"/></g><path class="cls-15" d="M323.82,127.94c.35-.08.44.18.35.45L306.29,183.9l18.15,34.8a.69.69,0,0,1-.18.71c-.26.17-.44.17-.53.09l-17.89-34.36L288.22,240a.81.81,0,0,1-.35.44c-.35.09-.44-.18-.35-.44l17.88-55.61-18.15-34.79a.68.68,0,0,1,.18-.71c.26-.18.44-.18.53-.09l17.88,34.36,17.62-54.81C323.55,128.21,323.64,128,323.82,127.94Z"/><path class="cls-22" d="M302.39,198.6l-8-2.66-5.22-19.83a2.94,2.94,0,0,1,.18-1.77l.53-1.42a6.76,6.76,0,0,0,.44-2.3l-.09-3a.83.83,0,0,0-.88-.88h0a.94.94,0,0,0-.89.79l-.44,2.66-1.15,1.24-1-3.63v-4.61l-2.3,3.28a4.09,4.09,0,0,0-.71,3l1,5.75,2.56,22.32a8.81,8.81,0,0,0,5.67,7.26l8.41,3.27Z"/><path class="cls-11" d="M319.48,319.37a3.68,3.68,0,0,1-3.36,2.21,17.12,17.12,0,0,1-4.25-.53c-3.1-.53-6.2,0-9.3-.09a12.6,12.6,0,0,1-3.1-.35,5.72,5.72,0,0,1-2.66-1.51,4.84,4.84,0,0,1-.79-1.68,3.1,3.1,0,0,0,.79,2.57,4.45,4.45,0,0,0,2.66,1.5,11.7,11.7,0,0,0,3.1.36c3.1.09,6.2-.44,9.3.09a17.61,17.61,0,0,0,4.25.53,3.69,3.69,0,0,0,3.36-2.22,2.52,2.52,0,0,0,.09-1.41C319.57,319,319.48,319.19,319.48,319.37Z"/><path class="cls-24" d="M319.39,316.71l-.62-2.83a6.73,6.73,0,0,0-.44-1.42,1.43,1.43,0,0,0-1.24-.71c-1.77-.26-4.16-.88-5.58.09a13.21,13.21,0,0,1-7.7,2.22,22.44,22.44,0,0,0-4.25-.18,3.79,3.79,0,0,0-3.28,2.3,2.9,2.9,0,0,0-.09,1.24,3.32,3.32,0,0,0,.8,1.68,4.48,4.48,0,0,0,2.66,1.51,12.08,12.08,0,0,0,3.1.35c3.09.09,6.19-.44,9.29.09a17.24,17.24,0,0,0,4.25.53,3.68,3.68,0,0,0,3.37-2.21,1.1,1.1,0,0,0,.09-.53A17.54,17.54,0,0,0,319.39,316.71Z"/><path class="cls-22" d="M311.07,308.83l-.09,3.72a1.41,1.41,0,0,0,1.33,1.51,25.66,25.66,0,0,0,3.72,0,2.16,2.16,0,0,0,1.94-1.95l.18-2.75Z"/><path class="cls-11" d="M335.33,306.8a2.41,2.41,0,0,1-.53,1.5,2.79,2.79,0,0,1-1.77,1,4.36,4.36,0,0,1-4.34-1.78c-.44-.7-.71-1.5-1.15-2.21a10.82,10.82,0,0,0-2.48-2.39,9.08,9.08,0,0,1-2.48-2.39,3.51,3.51,0,0,1-.44-3.1c-.09.09-.18.27-.27.36a3.51,3.51,0,0,0,.44,3.36,11.22,11.22,0,0,0,2.48,2.48,10.81,10.81,0,0,1,2.48,2.48c.44.71.71,1.5,1.24,2.21a4.54,4.54,0,0,0,4.43,1.86,2.73,2.73,0,0,0,1.77-1,3.66,3.66,0,0,0,.53-2.13A.31.31,0,0,0,335.33,306.8Z"/><path class="cls-24" d="M334.27,302.19c-1.16-1.95-3.46-3.45-5.32-4.87a6.53,6.53,0,0,0-3.54-1.59,3.34,3.34,0,0,0-3.27,1.68v.09a3.47,3.47,0,0,0,.44,3.1,12.82,12.82,0,0,0,2.48,2.39,9.22,9.22,0,0,1,2.48,2.39c.44.71.71,1.51,1.15,2.21a4.33,4.33,0,0,0,4.34,1.77,2.73,2.73,0,0,0,1.77-1,3.12,3.12,0,0,0,.53-1.5v-.54A8.41,8.41,0,0,0,334.27,302.19Z"/><path class="cls-22" d="M329.31,300.42v3.37a5.68,5.68,0,0,0,5.31-.27l.35-3Z"/><path class="cls-11" d="M335.77,239c1,3-.26,17.54-.8,31.44,2.22,5.22,1.6,20.18.36,30.72,0,0-2.22,1.33-6.2,0l-5-29.22-.71-16.47s-1.24,14.61-2.65,24c1.33,7.17,1,8.5-2.3,30.63a8.65,8.65,0,0,1-7.53,0c-1.86-31.08-1.24-59.41-.8-69.59Z"/><path class="cls-8" d="M323.91,265.45,323.38,252c3.45,0,6.72-2.57,9.2-5.05a16.43,16.43,0,0,1-6.9,6.11Z"/><path class="cls-5" d="M309.56,241.36c15.5,6.47,25.59.62,26.92-2.47-.71-10.72,1.86-23.29,1.59-28.6s-.88-11.34-9.12-10.1l-8.76.89-4.43,1.06-5.31,11.16Z"/><path class="cls-10" d="M309.56,241.36c15.5,6.47,25.59.62,26.92-2.47-.71-10.72,1.86-23.29,1.59-28.6s-.88-11.34-9.12-10.1l-8.76.89-4.43,1.06-5.31,11.16Z"/><path class="cls-9" d="M309.56,241.36c15.5,6.47,25.59.62,26.92-2.47-.71-10.72,1.86-23.29,1.59-28.6s-.88-11.34-9.12-10.1l-8.76.89-4.43,1.06-5.31,11.16Z"/><path class="cls-11" d="M329,195.94a2.3,2.3,0,0,0,1.68-.62,1.78,1.78,0,0,0,.45-1.5,1.44,1.44,0,0,0,1.15-1,1.69,1.69,0,0,0-.27-1.59,2.6,2.6,0,0,0,1.77-1.42,2.92,2.92,0,0,0,.09-2.3,2.4,2.4,0,0,0,1.77-1.68,2.53,2.53,0,0,0-.53-2.48,3.33,3.33,0,0,0-2.57-5.31,3.34,3.34,0,0,0-4.33-3.72,3.07,3.07,0,0,0-4-1.68,3.29,3.29,0,0,0-1.15.79,2.4,2.4,0,0,0-3.9.45,3.15,3.15,0,0,0-4.16,1.59,4.14,4.14,0,0,0-.26,1.42,1.9,1.9,0,0,0-1.33,1.86,2,2,0,0,0,1.5,1.77,42.31,42.31,0,0,0,4.17,12c.88,1.68,1.94,3.45,3.63,4.34S327.45,197.27,329,195.94Z"/><path class="cls-5" d="M329,195.94a2.3,2.3,0,0,0,1.68-.62,1.78,1.78,0,0,0,.45-1.5,1.44,1.44,0,0,0,1.15-1,1.69,1.69,0,0,0-.27-1.59,2.6,2.6,0,0,0,1.77-1.42,2.92,2.92,0,0,0,.09-2.3,2.4,2.4,0,0,0,1.77-1.68,2.53,2.53,0,0,0-.53-2.48,3.33,3.33,0,0,0-2.57-5.31,3.34,3.34,0,0,0-4.33-3.72,3.07,3.07,0,0,0-4-1.68,3.29,3.29,0,0,0-1.15.79,2.4,2.4,0,0,0-3.9.45,3.15,3.15,0,0,0-4.16,1.59,4.14,4.14,0,0,0-.26,1.42,1.9,1.9,0,0,0-1.33,1.86,2,2,0,0,0,1.5,1.77,42.31,42.31,0,0,0,4.17,12c.88,1.68,1.94,3.45,3.63,4.34S327.45,197.27,329,195.94Z"/><path class="cls-25" d="M329,195.94a2.3,2.3,0,0,0,1.68-.62,1.78,1.78,0,0,0,.45-1.5,1.44,1.44,0,0,0,1.15-1,1.69,1.69,0,0,0-.27-1.59,2.6,2.6,0,0,0,1.77-1.42,2.92,2.92,0,0,0,.09-2.3,2.4,2.4,0,0,0,1.77-1.68,2.53,2.53,0,0,0-.53-2.48,3.33,3.33,0,0,0-2.57-5.31,3.34,3.34,0,0,0-4.33-3.72,3.07,3.07,0,0,0-4-1.68,3.29,3.29,0,0,0-1.15.79,2.4,2.4,0,0,0-3.9.45,3.15,3.15,0,0,0-4.16,1.59,4.14,4.14,0,0,0-.26,1.42,1.9,1.9,0,0,0-1.33,1.86,2,2,0,0,0,1.5,1.77,42.31,42.31,0,0,0,4.17,12c.88,1.68,1.94,3.45,3.63,4.34S327.45,197.27,329,195.94Z"/><polygon class="cls-26" points="314.34 186.03 312.57 189.21 314.52 189.92 314.34 186.03"/><path class="cls-22" d="M315.05,180.54a28.9,28.9,0,0,0-.53,13.46,3.83,3.83,0,0,0,.89,2.12,3.29,3.29,0,0,0,2.3,1.06,12.58,12.58,0,0,0,2.57-.26V201c3.1.71,6.37,1.06,8.76-.89v-4.16a11.58,11.58,0,0,1-5.49.36c-2.12-1.15-2.57-5.14-2.3-6.11a1.71,1.71,0,0,0,1.68.62,2.27,2.27,0,0,0,1.42-1.15,6.07,6.07,0,0,0,.53-1.77,2.6,2.6,0,0,0-.35-2.13,2.19,2.19,0,0,0-2.48-.8,3.5,3.5,0,0,0-2,1.69,3,3,0,0,0-.35.79.46.46,0,0,1-.62.27c-.18-.09-.36-.27-.36-.44a6.71,6.71,0,0,1,.62-3.46,2.35,2.35,0,0,1-1.77-1.06,2.21,2.21,0,0,1-.35-1.95A9.13,9.13,0,0,1,315.05,180.54Z"/><path class="cls-22" d="M325.94,154.33l-1.41-3.45-.71-3.28a.89.89,0,0,1,.53-1h0a.89.89,0,0,1,1.06.53l.62,1.77v-5.05l2.13,3.72a3.44,3.44,0,0,1,.44,1.86l-.35,3.72Z"/><path class="cls-5" d="M315.76,202.14c-5-1.68-13.72-4.34-13.72-4.34-4,4-3.63,10.45-3.63,10.45l11.95,5C321.87,216.84,323.55,204.71,315.76,202.14Z"/><path class="cls-8" d="M315.76,202.14c-5-1.68-13.72-4.34-13.72-4.34-4,4-3.63,10.45-3.63,10.45l11.95,5C321.87,216.84,323.55,204.71,315.76,202.14Z"/><path class="cls-9" d="M315.76,202.14c-5-1.68-13.72-4.34-13.72-4.34-4,4-3.63,10.45-3.63,10.45l11.95,5C321.87,216.84,323.55,204.71,315.76,202.14Z"/></g><g id="freepik--character-2--inject-210"><path class="cls-22" d="M320.28,308l-16.65-12.4-6.46-19.3c0-1.42-.09-2.92-.09-4.34a2.45,2.45,0,0,0-1.33-2.12,9.86,9.86,0,0,0-3.9-1.07,9.78,9.78,0,0,0-1.23-2.57,1.1,1.1,0,0,0-1.33-.26h0a1,1,0,0,0-.45,1.42.08.08,0,0,0,.09.08,16.83,16.83,0,0,1,2.66,7,7.48,7.48,0,0,1-2.3-1.77,1.42,1.42,0,0,0-2-.09,2.11,2.11,0,0,0-.35.44h0a12.15,12.15,0,0,0,5.66,5.49l3,19.84a8.3,8.3,0,0,0,2.66,4.95l12.4,11.07Z"/><path class="cls-26" d="M303.63,295.64l-3.19-9.38A22.47,22.47,0,0,0,296,300a8.22,8.22,0,0,0,2.21,3.27l12.4,11.07,9.73-6.28Z"/><path class="cls-27" d="M308,426.77a4.17,4.17,0,0,1-3.19,1.86,17.64,17.64,0,0,1-4.34-.27,31.73,31.73,0,0,0-6.46-.17,31.41,31.41,0,0,1-4,.26,6.71,6.71,0,0,1-3.81-1.24,3.73,3.73,0,0,1-1.42-2.39,3.9,3.9,0,0,0,1.42,3.28,6.36,6.36,0,0,0,3.81,1.24,29.68,29.68,0,0,0,4-.27,31,31,0,0,1,6.46.18,14.88,14.88,0,0,0,4.43.35,5.11,5.11,0,0,0,3.19-1.86Z"/><path class="cls-15" d="M292.3,424.2c1.24,0,.79-1.77,1.95-3h-1.42C291.77,422.78,291.41,424.2,292.3,424.2Z"/><path class="cls-15" d="M294.78,424.11c1.24,0,.88-2.12,2.12-3.36l-.8.26a1.88,1.88,0,0,1-.7.09C294.25,422.61,294,424.11,294.78,424.11Z"/><path class="cls-11" d="M306.73,420a1.7,1.7,0,0,0-.62-1l-6.55-.18a5.72,5.72,0,0,1-2.66,1.86c-1.15,1.24-.88,3.36-2.12,3.36-.8,0-.53-1.5.53-3a5,5,0,0,1-1.15.09c-1.15,1.24-.71,3-2,3-.8,0-.53-1.42.53-2.92h-.89l-.79-.09c-2.39,1.86-2.57,4-2.3,7.17a5.71,5.71,0,0,0,1.24.09,31.41,31.41,0,0,0,4-.26,31.73,31.73,0,0,1,6.46.17,11.69,11.69,0,0,0,4.34.27,5.2,5.2,0,0,0,3.19-1.86Z"/><path class="cls-15" d="M291.06,421.19a10,10,0,0,0-3.28,0,3.9,3.9,0,0,0-2.92,2.57,5,5,0,0,0-.09,1.15,3.75,3.75,0,0,0,1.42,2.39,6,6,0,0,0,2.57,1.06C288.4,425.18,288.67,423.14,291.06,421.19Z"/><path class="cls-22" d="M299.38,417v3.1a1.36,1.36,0,0,0,1.33,1.33H304a2.14,2.14,0,0,0,2.13-2l.09-2.39Z"/><path class="cls-27" d="M321.07,415.61a2.47,2.47,0,0,1-1.94,1.42,4,4,0,0,1-2.48-.62c-1.15-.71-1.6-1.86-2.31-2.83a15.38,15.38,0,0,0-2.74-2.66,9.4,9.4,0,0,1-2.57-3,4.87,4.87,0,0,1-.35-1.06A3.62,3.62,0,0,0,309,409a9.29,9.29,0,0,0,2.57,3,19.7,19.7,0,0,1,2.74,2.66c.8,1,1.24,2.12,2.31,2.83a3.93,3.93,0,0,0,2.48.62,2.35,2.35,0,0,0,1.94-1.41,5.92,5.92,0,0,0,.09-1.78A1.68,1.68,0,0,1,321.07,415.61Z"/><path class="cls-15" d="M313.64,408.8a1.2,1.2,0,0,0-.18.53.61.61,0,0,0,.35.44.68.68,0,0,0,.71-.18,3.06,3.06,0,0,0,.53-.62,4.83,4.83,0,0,1,1.68-1.24,3.73,3.73,0,0,1,1-.17l-.8-.71a4.07,4.07,0,0,0-1.5.35A3.83,3.83,0,0,0,313.64,408.8Z"/><path class="cls-15" d="M313.81,406.23a3.67,3.67,0,0,0-1.77,1.68,1.22,1.22,0,0,0-.17.53.56.56,0,0,0,.35.44.71.71,0,0,0,.71-.17,5,5,0,0,0,.53-.62,3.92,3.92,0,0,1,1.68-1.24,3.47,3.47,0,0,1,1.68-.18L316,406A3.21,3.21,0,0,0,313.81,406.23Z"/><path class="cls-15" d="M315.5,405.34a7.17,7.17,0,0,0-2.57-1.68,3.43,3.43,0,0,0-3.54.44,3,3,0,0,0-.8,2.66,4,4,0,0,0,.35,1.06,3.82,3.82,0,0,0,.8,1.24C310,406.4,312.48,405.08,315.5,405.34Z"/><path class="cls-11" d="M321.16,412.87a6,6,0,0,0-.62-2.75L319,408.44l-1.15-1.06a3.17,3.17,0,0,0-1,.18,4.44,4.44,0,0,0-1.68,1.24,4.26,4.26,0,0,1-.53.62.7.7,0,0,1-.71.17c-.18-.09-.35-.17-.35-.44a1.37,1.37,0,0,1,.17-.53,4.62,4.62,0,0,1,1.78-1.68,4.08,4.08,0,0,1,1.5-.36l-.18-.18a3.73,3.73,0,0,0-1.68.18,4.66,4.66,0,0,0-1.68,1.24c-.18.18-.36.44-.53.62a.69.69,0,0,1-.71.18c-.18-.09-.35-.18-.35-.44a.69.69,0,0,1,.17-.54,4,4,0,0,1,4-2h0l-.45-.44c-3-.36-5.4,1-5.75,3.8a16.43,16.43,0,0,0,1.77,1.77,19.7,19.7,0,0,1,2.74,2.66c.8,1,1.24,2.12,2.31,2.83a3.93,3.93,0,0,0,2.48.62,2.13,2.13,0,0,0,2.12-2v-.09C321.25,414.2,321.16,413.22,321.16,412.87Z"/><path class="cls-22" d="M315.41,408l.17,3.36a4.7,4.7,0,0,0,5.14-.17l.18-3.1h-5.49Z"/><path class="cls-5" d="M319.92,335.75c-.09-.18-.26-.35-.35-.53a30.26,30.26,0,0,1-21.87,2.48c-1.6,11.51-2.92,31.08-2,44,.71,15.05,3.46,36.3,3.46,36.3,3.63,1.07,6.28.45,7.34-.35,1.24-14.88,3.81-25.15,1.77-35,1.33-6.91,2.22-15.5,2.22-15.5l1.06,15.23,3.54,26.74a6.17,6.17,0,0,0,6.29-.35c2.57-15.32,3.54-25.68,1.33-33.3C326,350.45,326.21,344,319.92,335.75Z"/><path class="cls-7" d="M319.92,335.75c-.09-.18-.26-.35-.35-.53a30.26,30.26,0,0,1-21.87,2.48c-1.6,11.51-2.92,31.08-2,44,.71,15.05,3.46,36.3,3.46,36.3,3.63,1.07,6.28.45,7.34-.35,1.24-14.88,3.81-25.15,1.77-35,1.33-6.91,2.22-15.5,2.22-15.5l1.06,15.23,3.54,26.74a6.17,6.17,0,0,0,6.29-.35c2.57-15.32,3.54-25.68,1.33-33.3C326,350.45,326.21,344,319.92,335.75Z"/><path class="cls-28" d="M319.92,335.75c-.09-.18-.26-.35-.35-.53a30.26,30.26,0,0,1-21.87,2.48c-1.6,11.51-2.92,31.08-2,44,.71,15.05,3.46,36.3,3.46,36.3,3.63,1.07,6.28.45,7.34-.35,1.24-14.88,3.81-25.15,1.77-35,1.33-6.91,2.22-15.5,2.22-15.5l1.06,15.23,3.54,26.74a6.17,6.17,0,0,0,6.29-.35c2.57-15.32,3.54-25.68,1.33-33.3C326,350.45,326.21,344,319.92,335.75Z"/><path class="cls-10" d="M312,364.08l1.86-8a11,11,0,0,0,7.44-4.87,14.81,14.81,0,0,1-9.12,3.19L310.45,367l.35,5.32.18-1.95A40.69,40.69,0,0,1,312,364.08Z"/><path class="cls-5" d="M306.29,308.48l-5.49,1.06c-1.24,2.21-2.48,4.34-3.63,6.55-.89,1.69-1.86,3.46-1.77,5.4a5.71,5.71,0,0,0,3.27,4.79L296,345.13c10.18,6.2,26.74,1.86,28.24-3.71-1.5-3.81-3-5.23-4-9.66-.71-3.27,1-8,1.24-9.29a36.56,36.56,0,0,0,1-6.2,11.79,11.79,0,0,0-1.42-6v-.09a6.81,6.81,0,0,0-6.73-2.92Z"/><path class="cls-27" d="M313.28,304.14a5.64,5.64,0,0,0,3.37-3.45c.53-1.69.17-3.46.62-5.05a20.38,20.38,0,0,0,.88-2.39,8.52,8.52,0,0,0-5.13-9.83,19,19,0,0,0-10.63-1.5,7,7,0,0,0-3.89,1.77,2.86,2.86,0,0,0,.17,3.89,3,3,0,0,0-1.24,2.13,2.59,2.59,0,0,0,1.77,2.48c1.07,9.83,5.49,11.86,7.88,12.66S311.16,306.18,313.28,304.14Z"/><polygon class="cls-22" points="298.67 295.29 296.99 298.3 298.85 299 298.67 295.29"/><path class="cls-22" d="M298.5,294.05c.26-2.57,1.06-5.05,2.74-6.29-.27,1.59,0,3.9,1.68,5.14a8.08,8.08,0,0,0,.27,4.07,4.28,4.28,0,0,1,1.24-2.22,2.42,2.42,0,0,1,2.39-.53,2.65,2.65,0,0,1,1.24,1.33,3.14,3.14,0,0,1-3.9,4.16,6,6,0,0,0,4.61,4.7,7.88,7.88,0,0,0,4.51-.36l.71,3.45c-2.83,3-7.7,1-7.7,1l-.62-3.45c-5.58.35-6.11.26-6.73-2.84A27.71,27.71,0,0,1,298.5,294.05Z"/><path class="cls-5" d="M315.94,288.65l-.53-2.22a.89.89,0,0,0-1.07-.35,1.39,1.39,0,0,0-.7.88,2.06,2.06,0,0,0,.17,1.24,1.9,1.9,0,0,0,.53.89,1,1,0,0,0,1,.26A.85.85,0,0,0,315.94,288.65Z"/><path class="cls-27" d="M315.5,288.73a4.06,4.06,0,0,1,4.25,2.13,8,8,0,0,1,.53,5,29.55,29.55,0,0,1-2.93,7,14.28,14.28,0,0,0-1.85,7.26,8,8,0,0,0,6.19,6.82,3.61,3.61,0,0,1-1.24-2.66,5.31,5.31,0,0,0,7.88,1.07,4.91,4.91,0,0,1-3.54-1.42,4.27,4.27,0,0,0,2.57-.35c-2.66-1.51-3.63-5-3.28-8.15s1.6-5.93,2.22-9,.26-6.55-1.95-8.68a7.75,7.75,0,0,0-6.73-1.68,21.78,21.78,0,0,0-2.3.62C314,286.87,314.7,288.91,315.5,288.73Z"/><polygon class="cls-5" points="265.03 299.8 273.26 323.53 290.08 314.14 282.03 290.68 265.03 299.8"/><polygon class="cls-8" points="265.03 299.8 273.26 323.53 290.08 314.14 282.03 290.68 265.03 299.8"/><polygon class="cls-21" points="265.03 299.8 273.26 323.53 290.08 314.14 282.03 290.68 265.03 299.8"/><polygon class="cls-15" points="287.61 313.17 280.88 293.69 267.6 300.78 274.41 320.52 287.61 313.17"/><polygon class="cls-11" points="278.57 295.11 271.14 299 270.87 298.03 272.29 296.79 276.27 294.67 278.13 294.4 278.57 295.11"/><polygon class="cls-24" points="276.27 294.67 276.01 293.96 272.02 296.08 272.29 296.79 276.27 294.67"/><polygon class="cls-11" points="278.31 292.72 269.37 297.5 268.92 296.61 277.95 291.83 278.31 292.72"/><path class="cls-24" d="M275.83,293c-.8-2.47-5.49-.17-4.52,2.39Z"/><path class="cls-22" d="M297,311.75,285.13,327l-10.81-10.62a3.73,3.73,0,0,1-1.06-2.21c-.53-4.08-1.68-6.91-3.1-6.38-.88.35.27,4.25.27,4.25l-1.33-.8-1.59-4.6h-.71a1.69,1.69,0,0,0-1.68,1.24l-.71,1.95a5.71,5.71,0,0,0,2,6.46l2.39,1.77a4.62,4.62,0,0,1,.89,1,107.45,107.45,0,0,0,12.75,16.2,3.34,3.34,0,0,0,4.07.44c4.61-3,14-11.86,18.77-18a5.09,5.09,0,0,0-.88-7.17c-.18-.09-.36-.27-.53-.36h0A5.28,5.28,0,0,0,297,311.75Z"/></g><g id="freepik--character-1--inject-210"><path class="cls-5" d="M215.62,180.71c2.57-1.5,4.69-.26,4.69,2.66l.18,55.16a10.31,10.31,0,0,1-4.69,8.06l-66.14,38.16c-2.57,1.51-4.69.27-4.69-2.66l-.18-55.16a10.31,10.31,0,0,1,4.69-8.05Z"/><g class="cls-14"><path class="cls-15" d="M215.62,180.71c2.57-1.5,4.69-.26,4.69,2.66l.18,55.16a10.31,10.31,0,0,1-4.69,8.06l-66.14,38.16c-2.57,1.51-4.69.27-4.69-2.66l-.18-55.16a10.31,10.31,0,0,1,4.69-8.05Z"/></g><path class="cls-15" d="M216.15,184.34a.3.3,0,0,1,.36,0c.17.18.09.54-.09.8l-32.94,47.11,33.12,8.94c.17.09.26.35.08.71a.85.85,0,0,1-.35.44.33.33,0,0,1-.27.09l-33.38-9-33.2,47.45-.26.27a.27.27,0,0,1-.36,0c-.18-.18-.09-.53.09-.8l32.94-47.1-33.12-8.94c-.17-.09-.26-.36-.09-.71a.83.83,0,0,1,.36-.44.32.32,0,0,1,.26-.09l33.38,9,33.21-47.46C216,184.43,216.06,184.34,216.15,184.34Z"/><path class="cls-29" d="M217.13,220.2l3.36,7.18-6,18.32-13.37,8.68,4.78,11.25,13.64-13.29a10.93,10.93,0,0,0,3-5.93l2.57-19.21-2.93-10.89-1.68-1.6.09,6.91-1.68-2.39a1.1,1.1,0,0,0-1.42-.27h0A.9.9,0,0,0,217.13,220.2Z"/><path class="cls-24" d="M200.39,252.61l10.89-5.49c6.38,1.59,6.55,8.32,6.55,8.32l-11.24,10.19Z"/><path class="cls-27" d="M189,376.92a3.75,3.75,0,0,1-3.45,2.3,18.09,18.09,0,0,1-4.43-.53c-3.28-.62-6.46,0-9.74-.09a18.35,18.35,0,0,1-3.1-.26,5.41,5.41,0,0,1-2.74-1.6,3.24,3.24,0,0,1-.8-1.68,3.21,3.21,0,0,0,.8,2.66,5.39,5.39,0,0,0,2.74,1.59,12.85,12.85,0,0,0,3.19.36c3.28.08,6.46-.54,9.74.08a18.1,18.1,0,0,0,4.43.54,3.75,3.75,0,0,0,3.45-2.4,2.84,2.84,0,0,0,.09-1.5C189.06,376.57,189.06,376.74,189,376.92Z"/><path class="cls-5" d="M188.88,374.26c-.18-1-.44-1.94-.62-3a4.26,4.26,0,0,0-.53-1.5,1.65,1.65,0,0,0-1.33-.8c-1.77-.26-4.34-.88-5.84.18a13.54,13.54,0,0,1-8,2.3,25.23,25.23,0,0,0-4.43-.18,4.17,4.17,0,0,0-3.45,2.39,3.34,3.34,0,0,0-.09,1.33,3.07,3.07,0,0,0,.8,1.69,5.62,5.62,0,0,0,2.74,1.68,13.39,13.39,0,0,0,3.19.35c3.28.09,6.46-.53,9.74.09a18.59,18.59,0,0,0,4.43.53A3.79,3.79,0,0,0,189,377a1.1,1.1,0,0,0,.09-.53A6,6,0,0,0,188.88,374.26Z"/><path class="cls-22" d="M180.21,365.94l-.09,3.9a1.62,1.62,0,0,0,1.41,1.59,28.2,28.2,0,0,0,3.9,0,2.28,2.28,0,0,0,2-2.12l.17-2.84Z"/><path class="cls-7" d="M180.21,365.94l-.09,3.9a1.62,1.62,0,0,0,1.41,1.59,28.2,28.2,0,0,0,3.9,0,2.28,2.28,0,0,0,2-2.12l.17-2.84Z"/><path class="cls-27" d="M205.53,363.91a2.66,2.66,0,0,1-.53,1.59,3.61,3.61,0,0,1-1.86,1.06,4.62,4.62,0,0,1-4.52-1.86c-.53-.71-.8-1.5-1.24-2.21a9.6,9.6,0,0,0-2.57-2.48,11.37,11.37,0,0,1-2.56-2.48,3.63,3.63,0,0,1-.53-3.28,2,2,0,0,0-.27.45,3.9,3.9,0,0,0,.44,3.54,10.68,10.68,0,0,0,2.66,2.57,11.77,11.77,0,0,1,2.57,2.56c.44.8.79,1.6,1.24,2.31a4.71,4.71,0,0,0,4.6,1.94,2.65,2.65,0,0,0,1.86-1.06,3.21,3.21,0,0,0,.53-2.21C205.53,364.08,205.53,364,205.53,363.91Z"/><path class="cls-5" d="M204.38,359c-1.15-2-3.63-3.55-5.49-5.05a7.14,7.14,0,0,0-3.63-1.68,3.27,3.27,0,0,0-3.37,1.77v.09a3.63,3.63,0,0,0,.53,3.27,11.41,11.41,0,0,0,2.57,2.48,8.26,8.26,0,0,1,2.48,2.48,17.49,17.49,0,0,0,1.24,2.21,4.58,4.58,0,0,0,4.52,1.86,2.88,2.88,0,0,0,1.85-1.06,2.61,2.61,0,0,0,.54-1.59v-.53A12.49,12.49,0,0,0,204.38,359Z"/><path class="cls-22" d="M199.24,357.26v3.55a6,6,0,0,0,5.49-.27l.35-3.19Z"/><path class="cls-7" d="M199.24,357.26v3.55a6,6,0,0,0,5.49-.27l.35-3.19Z"/><path class="cls-24" d="M206,293.25c1.06,3.19.71,19.83.09,34.27,1,7.08,1,22.31-.36,33.29a11.15,11.15,0,0,1-8.76.17l-3.1-33.46-.71-17.18s-1.33,15.23-2.83,25.06c.53,7.17-.62,20.89-1.68,35.59,0,0-5.67,3.27-11.34-.36-1.94-32.4,1.24-65.25,1.86-75.87Z"/><path class="cls-8" d="M193.57,320.79l-.62-14c3.64,0,7-2.75,9.57-5.32a16.18,16.18,0,0,1-7.26,6.29Z"/><path class="cls-11" d="M178.61,268.19v27.45c16.2,6.82,26.65.62,28.07-2.57-.8-11.15,1.86-24.26,1.68-29.84s-.88-11.86-9.47-10.53l-9.21.88-4.61,1.15Z"/><path class="cls-29" d="M170,266.69l-3.1,3.19-17.17-6.82a26.88,26.88,0,0,0-.36-4.7c-.09-.44-.35-.88-.88-.88h0c-.36,0-.8.53-.89,1.42a7.91,7.91,0,0,1-.09,1.41.68.68,0,0,1-.7.62.5.5,0,0,1-.45-.26,6.9,6.9,0,0,1-1-1.24l-.27-.62a11.71,11.71,0,0,1-.26-2.48,4.24,4.24,0,0,0-2.66,3.63,11.37,11.37,0,0,0-.18,3.81c.54,1.77,2.13,2.56,4.87,3.45,5.4,3.81,13,8.23,17.09,10.54a5.29,5.29,0,0,0,5.58-.18l6.55-4.34Z"/><path class="cls-30" d="M165.06,273.86a9.77,9.77,0,0,1,1.86-4l-1.5-.54C164.53,270.14,164.27,272.35,165.06,273.86Z"/><path class="cls-24" d="M169.31,266.69,178,258.1a12.71,12.71,0,0,1,7.17-3.45h.18c3.63,8-1.15,12-1.15,12L176.13,274A13.51,13.51,0,0,1,169.31,266.69Z"/><path class="cls-27" d="M198.44,247.74a16.62,16.62,0,0,0,5.49-10.27,5.61,5.61,0,0,0-.35-3.19c-.53-1-1.77-2-2.83-1.77a4.39,4.39,0,0,0-1.86-3.45,6,6,0,0,0-3.28-.71c-1.15,0-2.21.18-3.36.18a26.12,26.12,0,0,1-7.44-1.24,4.5,4.5,0,0,0,.88,2.83c-1.15-.18-2.21-1.24-3.09-2a6,6,0,0,0,1.85,4.08c-1.59-.18-1.85,2.56.8,2.56C186.49,246.41,194.64,251,198.44,247.74Z"/><path class="cls-30" d="M184.28,239.42,182.86,242l1.42.54Z"/><path class="cls-29" d="M185.34,234.72a20.93,20.93,0,0,0-1.06,4.7,16.81,16.81,0,0,0,0,3,34.5,34.5,0,0,0,.53,4.25,4.39,4.39,0,0,0,.8,2.12,3.29,3.29,0,0,0,2.3,1.06,11.92,11.92,0,0,0,2.57-.26v4.16c3.09.71,5.75,1.06,8.14-.8l-.26-5.31a7.68,7.68,0,0,1-4.43-.71c-2.13-1.15-2.75-3-2.48-4.07a1.71,1.71,0,0,0,1.68.62,2.09,2.09,0,0,0,1.42-1.15,6.07,6.07,0,0,0,.53-1.77,3,3,0,0,0-.35-2.13,2.19,2.19,0,0,0-2.48-.79,3.44,3.44,0,0,0-2,1.68,2.67,2.67,0,0,0-.35.8.46.46,0,0,1-.62.26c-.18-.09-.36-.26-.36-.44a6.66,6.66,0,0,1,.62-3.45,2.82,2.82,0,0,1-1.15.26,1.26,1.26,0,0,1-1.06-.53,1.07,1.07,0,0,1-.09-1.15A1.88,1.88,0,0,1,185.34,234.72Z"/><path class="cls-30" d="M214.47,245.79a3.54,3.54,0,0,1,3.36,2.3c-.17-3.89-2.47-3.27-3.18-3Z"/></g><rect class="cls-4" width="500.05" height="500.05"/></g></g></svg>