<?xml version="1.0" encoding="utf-8"?>
<!-- Generator: Adobe Illustrator 24.0.1, SVG Export Plug-In . SVG Version: 6.00 Build 0)  -->
<svg version="1.1" id="Calque_1" xmlns="http://www.w3.org/2000/svg" xmlns:xlink="http://www.w3.org/1999/xlink" x="0px" y="0px"
	 viewBox="0 0 146 24" style="enable-background:new 0 0 146 24;" xml:space="preserve">
<style type="text/css">
	.st0{fill:none;}
	.st1{fill:#34BDE8;}
</style>
<rect class="st0" width="146" height="24"/>
<g>
	<polygon class="st1" points="18.3,11.5 20,11.5 20,2 18.3,2.5 	"/>
	<path class="st1" d="M28.6,4.7c-0.9,0-1.6,0.3-2.2,1.2c-0.4-0.9-1.2-1.3-2-1.3c-0.6,0-1.4,0.2-1.8,0.9l-0.1-0.8H21v6.7h1.7V7.9
		c0-0.9,0.5-1.7,1.4-1.7s1.4,0.8,1.4,1.7v3.6h1.7V7.9c0-0.9,0.6-1.7,1.5-1.7S30,6.9,30,7.8v3.6h1.7V7.9C31.5,5.9,30.5,4.7,28.6,4.7z
		"/>
	<path class="st1" d="M44.7,9.8c-0.2,0.1-0.5,0.2-0.8,0.2C43.4,10,43,9.7,43,9V6.2h1.9V4.7H43V2l-1.7,0.5v2.2H40v1.4h1.3V9
		c0,1.7,1,2.5,2.4,2.4c0.5,0,0.9-0.1,1.4-0.3L44.7,9.8z"/>
	<path class="st1" d="M50.8,9.4C50.4,9.8,49.6,10,49,10c-1.2,0-1.9-0.6-2-1.4h5.2c0.3-2.8-1.1-4.1-3.4-4.1c-2.2,0-3.6,1.5-3.6,3.5
		c0,2.1,1.4,3.6,3.7,3.6c1,0,2.2-0.4,2.9-1.1L50.8,9.4z M48.9,5.9c1,0,1.6,0.4,1.7,1.3H47C47.3,6.3,48,5.9,48.9,5.9z"/>
	<path class="st1" d="M57.9,9.4C57.5,9.8,57,10,56.4,10c-1,0-1.9-0.7-1.9-2c0-1.2,0.8-2,1.9-2c0.5,0,1,0.2,1.3,0.5l1-1.1
		c-0.7-0.7-1.5-1-2.4-1c-1.9,0-3.6,1.2-3.6,3.5c0,2.4,1.6,3.5,3.6,3.5c1,0,1.8-0.3,2.6-1.1L57.9,9.4z"/>
	<path class="st1" d="M63.5,4.7c-0.8,0-1.5,0.2-2.1,1V2l-1.7,0.5v9h1.7V8.1c0-1,0.7-1.8,1.7-1.8c0.9,0,1.5,0.5,1.5,1.7v3.5h1.7V8
		C66.3,6,65.4,4.7,63.5,4.7z"/>
	<path class="st1" d="M13.8,4.1c-2.1,0-3.7,1.7-3.7,3.7s1.7,3.7,3.7,3.7c0.9,0,1.6-0.3,2.3-0.8v0.8h1.4V7.4l0,0
		C17.3,5.6,15.7,4.1,13.8,4.1z M13.8,10.1c-1.3,0-2.3-1-2.3-2.3s1-2.3,2.3-2.3s2.3,1,2.3,2.3S15,10.1,13.8,10.1z"/>
	<path class="st1" d="M38.2,11.5h1.4V7.4l0,0C39.4,5.5,37.8,4,35.9,4c-2.1,0-3.7,1.7-3.7,3.7s1.7,3.7,3.7,3.7c0.9,0,1.6-0.3,2.3-0.8
		V11.5z M35.9,10.1c-1.3,0-2.3-1-2.3-2.3s1-2.3,2.3-2.3s2.3,1,2.3,2.3S37.2,10.1,35.9,10.1z"/>
	<path class="st1" d="M39.3,14.2c0.2-0.1,0.4-0.1,0.6-0.1c0.3,0,0.6,0.1,0.8,0.3l0.4-0.3c-0.1-0.2-0.3-0.3-0.5-0.4
		c-0.2-0.1-0.4-0.1-0.7-0.1s-0.6,0.1-0.8,0.2c-0.2,0.1-0.4,0.3-0.6,0.5c-0.1,0.2-0.2,0.5-0.2,0.8s0.1,0.6,0.2,0.8
		c0.1,0.2,0.3,0.4,0.6,0.5c0.2,0.1,0.5,0.2,0.8,0.2c0.2,0,0.4,0,0.6-0.1c0.2-0.1,0.4-0.2,0.5-0.3V15h-0.5v0.9
		c-0.2,0.1-0.4,0.2-0.6,0.2c-0.2,0-0.4,0-0.6-0.1c-0.2-0.1-0.3-0.2-0.4-0.4c-0.1-0.2-0.1-0.3-0.1-0.5s0-0.4,0.1-0.5
		C39,14.5,39.1,14.3,39.3,14.2z"/>
	<path class="st1" d="M47,15.3c0.1-0.2,0.2-0.4,0.2-0.6c0-0.2-0.1-0.4-0.2-0.6c-0.1-0.2-0.3-0.3-0.4-0.4c-0.2-0.1-0.4-0.1-0.7-0.1
		h-1.2v3h0.6v-0.9H46c0.1,0,0.1,0,0.1,0l0.6,0.9h0.6l-0.7-1C46.8,15.6,46.9,15.5,47,15.3z M45.9,15.3h-0.7v-1.2h0.7
		c0.2,0,0.4,0.1,0.6,0.2c0.1,0.1,0.2,0.2,0.2,0.4s-0.1,0.3-0.2,0.4C46.3,15.3,46.1,15.3,45.9,15.3z"/>
	<path class="st1" d="M53,13.8c-0.2-0.1-0.5-0.2-0.8-0.2s-0.6,0.1-0.8,0.2c-0.2,0.1-0.4,0.3-0.6,0.6c-0.1,0.2-0.2,0.5-0.2,0.8
		s0.1,0.6,0.2,0.8c0.1,0.2,0.3,0.4,0.6,0.6c0.2,0.1,0.5,0.2,0.8,0.2s0.6-0.1,0.8-0.2s0.4-0.3,0.6-0.5c0.1-0.2,0.2-0.5,0.2-0.8
		s-0.1-0.6-0.2-0.8C53.5,14.1,53.3,13.9,53,13.8z M53.1,15.7c-0.1,0.2-0.2,0.3-0.4,0.4s-0.3,0.1-0.5,0.1s-0.4,0-0.5-0.1
		c-0.2-0.1-0.3-0.2-0.4-0.4c-0.1-0.2-0.1-0.3-0.1-0.5s0-0.4,0.1-0.5c0.1-0.2,0.2-0.3,0.4-0.4c0.2-0.1,0.3-0.1,0.5-0.1s0.4,0,0.5,0.1
		c0.2,0.1,0.3,0.2,0.4,0.4c0.1,0.2,0.1,0.3,0.1,0.5C53.3,15.4,53.2,15.5,53.1,15.7z"/>
	<path class="st1" d="M59.5,15.3c0,0.6-0.3,0.9-0.8,0.9s-0.8-0.3-0.8-0.9v-1.7h-0.6v1.7c0,0.4,0.1,0.8,0.3,1s0.6,0.3,1,0.3
		s0.7-0.1,1-0.3c0.2-0.2,0.3-0.6,0.3-1v-1.7h-0.5L59.5,15.3L59.5,15.3z"/>
	<path class="st1" d="M65.7,13.8c-0.2-0.1-0.4-0.1-0.7-0.1h-1.2v3h0.6v-0.9H65c0.3,0,0.5,0,0.7-0.1s0.3-0.2,0.4-0.4s0.2-0.3,0.2-0.6
		c0-0.2-0.1-0.4-0.2-0.6C66,14,65.9,13.9,65.7,13.8z M65.5,15.2c-0.1,0.1-0.3,0.2-0.6,0.2h-0.7v-1.2H65c0.2,0,0.4,0.1,0.6,0.2
		c0.1,0.1,0.2,0.2,0.2,0.4C65.7,14.9,65.7,15.1,65.5,15.2z"/>
	<path class="st1" d="M9.3,4.4C9.3,4.4,9.2,4.4,9.3,4.4C9.2,4.4,9.2,4.4,9.3,4.4L8.7,3.8l-0.9,1C7.2,4.4,6.5,4.2,5.7,4.2
		C3.7,4.2,2,5.8,2,7.9c0,1.8,1.3,3.3,3,3.7v1.7c-0.6,0.3-1,0.9-1,1.6c0,1,0.8,1.8,1.8,1.8s1.8-0.8,1.8-1.8c0-0.7-0.4-1.3-1-1.6v-1.7
		c1.7-0.3,3-1.9,3-3.7c0-0.7-0.2-1.4-0.6-2L9.9,5L9.3,4.4z M5.7,15.5c-0.3,0-0.6-0.3-0.6-0.6s0.3-0.6,0.6-0.6c0.3,0,0.6,0.3,0.6,0.6
		C6.3,15.2,6.1,15.5,5.7,15.5z M5.7,10.1c-1.2,0-2.2-1-2.2-2.2s1-2.2,2.2-2.2S8,6.7,8,7.9S7,10.1,5.7,10.1z"/>
</g>
</svg>
